<?xml version="1.0" standalone="no"?>
<!DOCTYPE svg PUBLIC "-//W3C//DTD SVG 20010904//EN"
 "http://www.w3.org/TR/2001/REC-SVG-20010904/DTD/svg10.dtd">
<svg version="1.0" xmlns="http://www.w3.org/2000/svg"
 width="700.000000pt" height="700.000000pt" viewBox="0 0 700.000000 700.000000"
 preserveAspectRatio="xMidYMid meet">
<metadata>
Created by potrace 1.11, written by Peter Selinger 2001-2013
</metadata>
<g transform="translate(0.000000,700.000000) scale(0.100000,-0.100000)"
fill="#000000" stroke="none">
<path d="M4715 6981 c-149 -42 -251 -119 -334 -255 -47 -78 -60 -91 -83 -87
-4 0 -42 -6 -83 -14 -200 -38 -359 -172 -431 -362 -21 -53 -27 -88 -28 -158
-1 -97 3 -127 28 -203 l17 -49 -39 -64 c-54 -91 -75 -166 -76 -274 0 -89 3
-121 22 -180 49 -156 183 -296 335 -353 69 -26 114 -33 216 -33 82 0 84 0 110
-32 178 -218 376 -297 611 -244 54 12 127 44 180 78 l61 39 42 -24 c98 -57
252 -82 379 -63 170 26 337 148 416 303 26 50 50 135 55 196 3 25 8 51 11 56
3 5 38 25 78 44 179 86 283 248 295 458 7 116 -6 180 -53 276 -57 115 -162
212 -291 268 -24 11 -43 26 -44 35 -6 137 -61 256 -168 361 -149 146 -365 195
-573 130 l-67 -21 -48 46 c-60 56 -177 115 -261 131 -90 17 -207 15 -277 -5z
m520 -577 c67 -33 120 -84 152 -147 24 -45 27 -64 27 -142 1 -73 -4 -100 -23
-142 -27 -61 -98 -131 -159 -158 -23 -10 -42 -21 -42 -24 -1 -3 -2 -68 -3
-143 -2 -135 -3 -138 -29 -164 -30 -30 -71 -37 -109 -18 -45 22 -51 54 -47
262 3 214 7 226 77 237 71 12 82 16 110 43 70 66 51 192 -34 228 -47 19 -94
17 -132 -6 -42 -25 -62 -57 -69 -111 -8 -57 -29 -87 -68 -97 -108 -29 -152 87
-88 230 36 81 130 157 219 177 65 14 163 3 218 -25z m-79 -1082 c31 -40 3
-114 -46 -123 -32 -7 -70 12 -86 42 -42 82 77 154 132 81z"/>
<path d="M2460 5868 c-101 -10 -140 -18 -230 -48 -36 -12 -102 -41 -147 -65
-352 -186 -564 -553 -548 -948 2 -62 6 -121 9 -133 51 -235 137 -401 288 -555
77 -78 209 -173 293 -209 79 -35 182 -69 228 -75 23 -3 56 -10 72 -14 17 -4
82 -6 145 -5 152 3 201 11 320 51 421 142 704 536 701 978 0 110 -5 149 -28
245 -119 493 -598 831 -1103 778z"/>
<path d="M1750 3731 c-80 -43 -159 -87 -177 -97 -17 -11 -57 -34 -90 -53 -363
-209 -646 -420 -723 -540 -33 -52 -72 -165 -95 -279 -9 -42 -19 -86 -21 -97
-5 -22 -12 -69 -33 -205 -5 -36 -12 -90 -16 -120 -3 -30 -8 -71 -10 -90 -2
-19 -7 -64 -10 -100 -3 -36 -8 -76 -10 -90 -2 -14 -7 -65 -10 -115 -4 -49 -8
-110 -10 -135 -2 -25 -7 -90 -10 -145 -3 -55 -8 -125 -10 -155 -5 -60 -12
-208 -20 -393 l-5 -117 2063 0 2063 0 -2 42 c-1 24 -5 107 -9 185 -4 78 -8
166 -10 195 -2 29 -7 96 -10 148 -11 175 -15 235 -20 290 -3 30 -7 84 -10 119
-3 35 -7 80 -10 100 -2 20 -7 65 -10 101 -3 36 -8 83 -11 105 -3 22 -7 56 -9
75 -22 194 -81 492 -118 590 -25 67 -57 119 -100 162 -37 38 -152 137 -183
158 -248 171 -433 287 -659 412 -112 62 -236 128 -239 128 -7 0 -191 -174
-506 -477 -58 -56 -118 -111 -133 -124 l-29 -22 -46 45 c-26 25 -61 58 -78 74
-28 27 -252 240 -444 423 -47 44 -87 81 -90 81 -3 0 -70 -35 -150 -79z"/>
<path d="M542 832 c-30 -23 -40 -83 -18 -116 29 -46 123 -44 141 2 10 26 -11
36 -28 12 -19 -27 -61 -35 -81 -14 -25 25 -21 81 9 100 23 15 65 12 65 -6 0
-12 29 -20 35 -10 3 5 -3 18 -15 30 -25 25 -77 26 -108 2z"/>
<path d="M1093 843 c-7 -3 -13 -11 -13 -18 0 -7 -6 -16 -12 -19 -10 -5 -10 -7
0 -12 6 -3 12 -23 12 -44 0 -21 3 -45 6 -54 7 -17 54 -22 54 -6 0 6 -7 10 -15
10 -11 0 -15 12 -15 45 0 33 4 45 15 45 8 0 15 5 15 10 0 6 -6 10 -14 10 -8 0
-16 8 -18 18 -2 11 -9 17 -15 15z"/>
<path d="M1400 818 c0 -25 -3 -29 -12 -20 -18 18 -53 15 -71 -6 -23 -25 -21
-68 3 -92 22 -22 66 -27 73 -7 4 10 6 10 6 0 1 -7 8 -13 16 -13 12 0 15 16 15
85 0 69 -3 85 -15 85 -10 0 -15 -10 -15 -32z m-10 -47 c15 -30 12 -49 -11 -61
-25 -14 -49 2 -49 34 0 43 41 61 60 27z"/>
<path d="M1530 767 l0 -84 49 -1 c55 -1 68 8 77 55 8 43 -26 78 -67 69 -26 -5
-29 -3 -29 19 0 16 -6 25 -15 25 -12 0 -15 -16 -15 -83z m88 11 c30 -30 -2
-93 -36 -71 -21 13 -27 50 -12 69 15 17 32 18 48 2z"/>
<path d="M2130 840 c0 -5 7 -10 15 -10 8 0 15 5 15 10 0 6 -7 10 -15 10 -8 0
-15 -4 -15 -10z"/>
<path d="M2610 765 c0 -69 3 -85 15 -85 9 0 15 9 15 24 0 37 17 40 36 6 10
-16 26 -30 36 -30 16 0 15 5 -8 40 l-27 41 23 24 c20 21 21 25 7 25 -10 0 -25
-9 -34 -20 -25 -29 -33 -25 -33 20 0 29 -4 40 -15 40 -12 0 -15 -16 -15 -85z"/>
<path d="M690 744 c0 -50 3 -64 15 -64 11 0 15 12 15 44 0 37 5 48 27 64 l26
19 -41 0 -42 0 0 -63z"/>
<path d="M790 790 c-11 -11 -20 -31 -20 -45 0 -53 69 -85 105 -49 22 22 11 30
-20 14 -20 -11 -27 -11 -40 0 -26 22 -16 31 30 27 41 -3 45 -2 45 18 0 49 -64
71 -100 35z m68 -17 c2 -9 -7 -13 -28 -13 -28 0 -31 2 -20 15 15 18 41 16 48
-2z"/>
<path d="M929 790 c-23 -19 -23 -19 -3 -20 11 0 25 5 31 11 13 13 43 5 43 -10
0 -5 -18 -12 -40 -16 -27 -4 -41 -13 -45 -26 -11 -33 11 -48 69 -46 l53 1 -5
51 c-2 27 -9 56 -14 63 -15 18 -63 15 -89 -8z m71 -64 c0 -18 -39 -31 -52 -18
-15 15 0 32 28 32 14 0 24 -6 24 -14z"/>
<path d="M1180 788 c-25 -28 -26 -62 0 -88 24 -24 63 -26 84 -4 25 24 9 35
-24 16 -27 -15 -32 -15 -40 -2 -13 21 -12 31 3 29 6 -1 29 -1 49 0 31 1 36 4
31 19 -19 53 -68 68 -103 30z m70 -13 c11 -13 7 -15 -23 -15 -28 0 -35 3 -31
15 4 8 14 15 24 15 10 0 23 -7 30 -15z"/>
<path d="M1675 793 c4 -10 16 -40 26 -68 18 -49 18 -50 -1 -64 -25 -17 -26
-31 -1 -31 25 0 35 14 65 94 30 79 31 86 12 86 -7 0 -19 -20 -27 -47 l-13 -47
-19 47 c-11 26 -26 47 -34 47 -11 0 -13 -5 -8 -17z"/>
<path d="M1890 718 c0 -74 3 -88 16 -88 13 0 15 8 12 35 -4 34 4 46 17 25 9
-14 51 -12 63 3 21 25 25 66 8 92 -13 20 -23 24 -66 23 l-50 -1 0 -89z m88 60
c30 -30 -2 -93 -36 -71 -21 13 -27 50 -12 69 15 17 32 18 48 2z"/>
<path d="M2040 744 c0 -49 3 -64 14 -64 11 0 16 14 18 48 2 38 7 49 26 57 33
15 27 22 -18 22 l-40 0 0 -63z"/>
<path d="M2130 745 c0 -51 3 -65 15 -65 12 0 15 14 15 65 0 51 -3 65 -15 65
-12 0 -15 -14 -15 -65z"/>
<path d="M2175 793 c4 -10 15 -42 25 -70 19 -52 19 -53 -1 -63 -24 -14 -25
-30 0 -30 26 0 35 14 70 103 26 70 28 77 11 77 -13 0 -21 -13 -29 -45 -10 -41
-31 -54 -31 -20 0 25 -23 65 -38 65 -9 0 -12 -6 -7 -17z"/>
<path d="M2338 803 c-19 -5 -25 -33 -8 -33 6 0 19 6 30 12 15 10 22 10 32 0
18 -18 -1 -29 -54 -31 -21 -1 -33 -38 -18 -56 7 -9 30 -13 64 -12 l53 1 -5 51
c-2 27 -9 56 -14 63 -10 12 -46 14 -80 5z m62 -77 c0 -18 -39 -31 -52 -18 -15
15 0 32 28 32 14 0 24 -6 24 -14z"/>
<path d="M2460 745 c0 -51 3 -65 15 -65 11 0 15 12 15 49 0 35 4 51 16 55 26
10 34 -3 34 -55 0 -38 4 -49 15 -49 13 0 15 11 13 56 -3 66 -23 88 -58 66 -12
-7 -20 -8 -20 -2 0 5 -7 10 -15 10 -12 0 -15 -14 -15 -65z"/>
<path d="M2768 803 c-10 -2 -18 -11 -18 -19 0 -15 16 -19 24 -5 7 10 46 9 46
-1 0 -5 0 -11 0 -15 0 -5 -12 -9 -26 -10 -37 -2 -62 -28 -48 -51 8 -12 26 -17
66 -18 l55 -1 -5 46 c-8 78 -26 92 -94 74z m62 -77 c0 -14 -21 -26 -46 -26
-17 0 -19 26 -1 33 24 10 47 7 47 -7z"/>
<path d="M533 573 c-4 -10 -11 -22 -17 -26 -8 -6 -7 -10 2 -14 7 -3 12 -25 12
-59 0 -41 4 -54 15 -54 11 0 15 13 15 54 0 34 5 56 13 59 9 4 8 8 -3 16 -12 9
-12 11 3 17 9 3 14 10 11 15 -9 16 -44 10 -51 -8z"/>
<path d="M1120 505 c0 -69 3 -85 15 -85 12 0 15 14 15 62 l0 61 40 -61 c56
-88 70 -83 70 23 0 69 -3 85 -15 85 -12 0 -15 -14 -15 -62 l0 -61 -40 61 c-56
88 -70 83 -70 -23z"/>
<path d="M1800 505 c0 -69 3 -85 15 -85 10 0 15 11 15 35 0 35 0 35 45 35 50
0 72 23 59 63 -10 31 -22 37 -81 37 l-53 0 0 -85z m98 56 c8 -5 12 -17 10 -27
-2 -14 -13 -20 -41 -22 -35 -3 -37 -2 -37 27 0 27 3 31 28 31 15 0 33 -4 40
-9z"/>
<path d="M2200 580 c0 -5 7 -10 15 -10 8 0 15 5 15 10 0 6 -7 10 -15 10 -8 0
-15 -4 -15 -10z"/>
<path d="M2563 583 c-7 -3 -13 -11 -13 -18 0 -7 -6 -16 -12 -18 -10 -4 -10 -7
-1 -14 6 -5 13 -31 15 -58 3 -46 5 -50 31 -53 29 -4 37 12 12 22 -10 3 -15 19
-15 46 0 29 4 40 15 40 8 0 15 5 15 10 0 6 -6 10 -14 10 -8 0 -16 8 -18 18 -2
11 -9 17 -15 15z"/>
<path d="M600 484 c0 -49 3 -64 14 -64 11 0 16 14 18 47 2 38 8 50 26 59 28
14 19 21 -25 22 l-33 1 0 -65z"/>
<path d="M700 530 c-11 -11 -20 -31 -20 -45 0 -14 9 -34 20 -45 11 -11 31 -20
45 -20 14 0 34 9 45 20 11 11 20 31 20 45 0 14 -9 34 -20 45 -11 11 -31 20
-45 20 -14 0 -34 -9 -45 -20z m70 -14 c28 -34 -11 -94 -44 -67 -21 18 -20 57
2 70 23 14 28 13 42 -3z"/>
<path d="M830 485 c0 -51 3 -65 15 -65 11 0 15 12 15 49 0 35 4 51 16 55 26
10 34 -3 34 -55 0 -37 4 -49 15 -49 11 0 15 12 15 49 0 35 4 51 16 55 26 10
34 -3 34 -55 0 -37 4 -49 15 -49 19 0 21 100 3 118 -14 14 -54 16 -63 2 -4 -6
-13 -5 -25 3 -16 9 -24 9 -40 -1 -12 -7 -20 -8 -20 -2 0 5 -7 10 -15 10 -12 0
-15 -14 -15 -65z"/>
<path d="M1310 530 c-11 -11 -20 -31 -20 -45 0 -14 9 -34 20 -45 11 -11 31
-20 45 -20 14 0 34 9 45 20 11 11 20 31 20 45 0 14 -9 34 -20 45 -11 11 -31
20 -45 20 -14 0 -34 -9 -45 -20z m68 -12 c30 -30 -2 -93 -36 -71 -21 13 -27
50 -12 69 15 17 32 18 48 2z"/>
<path d="M1440 504 c0 -68 11 -82 65 -82 l45 1 0 64 c0 49 -3 63 -15 63 -10 0
-14 -12 -13 -46 0 -29 -4 -49 -13 -55 -25 -16 -34 -3 -37 49 -2 37 -7 52 -18
52 -10 0 -14 -12 -14 -46z"/>
<path d="M1580 485 c0 -51 3 -65 15 -65 11 0 15 12 15 49 0 35 4 51 16 55 26
10 34 -3 34 -55 0 -38 4 -49 15 -49 13 0 15 11 13 56 -3 66 -23 88 -58 66 -12
-7 -20 -8 -20 -2 0 5 -7 10 -15 10 -12 0 -15 -14 -15 -65z"/>
<path d="M1960 484 c0 -49 3 -64 14 -64 11 0 16 14 18 47 2 39 7 50 28 60 14
7 23 13 20 14 -3 1 -22 3 -42 4 l-38 4 0 -65z"/>
<path d="M2080 543 c-63 -23 -43 -123 25 -123 14 0 34 9 45 20 50 50 -2 127
-70 103z m48 -25 c32 -32 1 -89 -37 -68 -26 13 -28 55 -3 69 22 13 26 13 40
-1z"/>
<path d="M2200 471 c0 -54 -4 -81 -12 -84 -7 -2 -9 -8 -5 -13 4 -4 16 -3 25 2
24 16 31 174 7 174 -12 0 -15 -15 -15 -79z"/>
<path d="M2270 530 c-11 -11 -20 -31 -20 -45 0 -53 69 -85 105 -49 22 22 11
30 -20 14 -20 -11 -27 -11 -40 0 -26 21 -17 30 30 27 40 -2 45 0 45 19 0 48
-64 70 -100 34z m68 -17 c2 -9 -7 -13 -27 -13 -31 0 -42 14 -18 23 19 8 40 3
45 -10z"/>
<path d="M2410 530 c-41 -41 -13 -110 46 -110 19 0 54 28 54 43 0 13 -23 7
-35 -9 -18 -26 -57 -1 -53 33 4 34 35 54 51 33 16 -20 37 -23 37 -5 0 35 -69
46 -100 15z"/>
</g>
</svg>
